# AST/ASF file generated using VICON BodyLanguage
# -----------------------------------------------
:version 1.10
:name VICON
:units
  mass 1.0
  length 0.45
  angle deg
:documentation
   .ast/.asf automatically generated from VICON data using
   VICON BodyBuilder and BodyLanguage model FoxedUp or BRILLIANT.MOD
:root
   order TX TY TZ RX RY RZ
   axis XYZ
   position 0 0 0  
   orientation 0 0 0 
:bonedata
  begin
     id 1 
     name lhipjoint
     direction 0.573633 -0.743009 0.344793 
     length 2.46257 
     axis 0 0 0  XYZ
  end
  begin
     id 2 
     name lfemur
     direction 0.34202 -0.939693 0  
     length 7.3842  
     axis 0 0 20  XYZ
    dof rx ry rz
    limits (-160.0 20.0)
           (-70.0 70.0)
           (-60.0 70.0)
  end
  begin
     id 3 
     name ltibia
     direction 0.34202 -0.939693 0   
     length 7.50407   
     axis 0 0 20   XYZ
    dof rx
    limits (-10.0 170.0)
  end
  begin
     id 4 
     name lfoot
     direction 0.110749 -0.304281 0.946123   
     length 1.95925   
     axis -90 7.62852e-016 20   XYZ
    dof rx rz
    limits (-45.0 90.0)
           (-70.0 20.0)
  end
  begin
     id 5 
     name ltoes
     direction 1.53554e-011 -4.21843e-011 1   
     length 0.978318   
     axis -90 7.62852e-016 20   XYZ
    dof rx
    limits (-90.0 20.0)
  end
  begin
     id 6 
     name rhipjoint
     direction -0.488109 -0.791693 0.367385   
     length 2.31113  
     axis 0 0 0  XYZ 
  end
  begin
     id 7 
     name rfemur
     direction -0.34202 -0.939693 0   
     length 7.40965   
     axis 0 0 -20   XYZ
    dof rx ry rz
    limits (-160.0 20.0)
           (-70.0 70.0)
           (-70.0 60.0)
  end
  begin
     id 8 
     name rtibia
     direction -0.34202 -0.939693 0   
     length 7.55548   
     axis 0 0 -20   XYZ
    dof rx
    limits (-10.0 170.0)
 end
 begin
     id 9 
     name rfoot
     direction -0.127594 -0.350561 0.927808   
     length 2.07199  
     axis -90 -7.62852e-016 -20   XYZ
    dof rx rz
    limits (-45.0 90.0)
           (-20.0 70.0)
  end
  begin
     id 10 
     name rtoes
     direction -1.53542e-011 -4.21909e-011 1   
     length 1.02667   
     axis -90 -7.62852e-016 -20   XYZ
    dof rx
    limits (-90.0 20.0)
  end
  begin
     id 11 
     name lowerback
     direction -0.0103342 0.997298 -0.0727278   
     length 2.02836   
     axis 0 0 0   XYZ
    dof rx ry rz
    limits (-20.0 45.0)
           (-30.0 30.0)
           (-30.0 30.0)
  end
  begin
     id 12 
     name upperback
     direction 0.0171146 0.999786 -0.011606   
     length 2.03179   
     axis 0 0 0   XYZ
    dof rx ry rz
    limits (-20.0 45.0)
           (-30.0 30.0)
           (-30.0 30.0)
  end
  begin
     id 13 
     name thorax
     direction 0.0216927 0.999513 0.0224343   
     length 2.03882   
     axis 0 0 0   XYZ
    dof rx ry rz
    limits (-20.0 45.0)
           (-30.0 30.0)
           (-30.0 30.0)
  end
  begin
     id 14 
     name lowerneck
     direction 0.000989287 0.993907 0.110221   
     length 1.75428   
     axis 0 0 0   XYZ
    dof rx ry rz
    limits (-20.0 45.0)
           (-30.0 30.0)
           (-30.0 30.0)
  end
  begin
     id 15 
     name upperneck
     direction -0.0172474 0.994813 -0.100253   
     length 1.77058   
     axis 0 0 0   XYZ
    dof rx ry rz
    limits (-20.0 45.0)
           (-30.0 30.0)
           (-30.0 30.0)
  end
  begin
     id 16
     name head
     direction -0.00486455 0.99894 -0.0457663  
     length 1.77427  
     axis 0 0 0   XYZ
    dof rx ry rz
    limits (-20.0 45.0)
           (-30.0 30.0)
           (-30.0 30.0)
  end
  begin
     id 17 
     name lclavicle
     direction 0.927314 0.333734 -0.169441  
     length 3.97584  
     axis 0 0 0   XYZ
    dof ry rz
    limits (-20.0 10.0)
           (0.0 20.0)
  end
  begin
     id 18 
     name lhumerus
     direction 1 -4.48965e-011 -3.25313e-028   
     length 4.76468   
     axis 180 -30 -90   XYZ
    dof rx ry rz
    limits (-60.0 90.0)
           (-90.0 90.0)
           (-90.0 90.0)
  end
  begin
     id 19
     name lradius
     direction 1 -4.48969e-011 -2.8465e-028   
     length 3.52712   
     axis -180 -30 -90   XYZ
    dof rx
    limits (-10.0 170.0)
  end
  begin
     id 20
     name lwrist
     direction 1 -4.4896e-011 -7.78665e-028   
     length 1.76356   
     axis 1.91374e-015 90 90   XYZ
    dof ry
    limits (-180.0 0.0)
 end
  begin
     id 21 
     name lhand
     direction 1 -4.48959e-011 -1.55733e-027   
     length 0.859564   
     axis 9.9371e-016 90 90   XYZ
    dof rx rz
    limits (-90.0 90.0)
           (-45.0 45.0)
  end
  begin
     id 22 
     name lfingers
     direction 1 -4.48965e-011 -3.11466e-027   
     length 0.693002   
     axis 1.98742e-015 90 90   XYZ
    dof rx
    limits (0.0 90.0)
  end
  begin
     id 23
     name lthumb
     direction 0.707107 -6.34948e-011 0.707107   
     length 0.995017   
     axis -90 45 2.85299e-015   XYZ
    dof rx rz
    limits (-45.0 45.0)
           (-45.0 45.0)
  end
  begin
     id 24 
     name rclavicle
     direction -0.899388 0.348209 -0.264294   
     length 3.68366  
     axis 0 0 0   XYZ 
    dof ry rz
    limits (-10.0 20.0)
           (-20.0 0.0)
  end
  begin
     id 25 
     name rhumerus
     direction -1 -4.48965e-011 -3.01536e-027  
     length 4.90577   
     axis 180 30 90   XYZ
    dof rx ry rz
    limits (-90.0 60.0)
           (-90.0 90.0)
           (-90.0 90.0)
  end
  begin
     id 26 
     name rradius
     direction -1 -4.48966e-011 3.93291e-027   
     length 3.42692   
     axis -180 30 90   XYZ
    dof rx
    limits (-10.0 170.0)
  end
  begin
     id 27 
     name rwrist
     direction -1 -4.48969e-011 -7.78665e-028   
     length 1.71346   
     axis 1.91374e-015 -90 -90   XYZ
    dof ry
    limits (-180.0 0.0)
  end
  begin
     id 28
     name rhand
     direction -1 -4.48967e-011 -1.55733e-027   
     length 0.740957   
     axis 9.9371e-016 -90 -90   XYZ
    dof rx rz
    limits (-90.0 90.0)
           (-45.0 45.0)
  end
  begin
     id 29
     name rfingers
     direction -1 -4.48949e-011 -3.11466e-027   
     length 0.597378   
     axis 1.98742e-015 -90 -90   XYZ
    dof rx
    limits (0.0 90.0)
  end
  begin
     id 30
     name rthumb
     direction -0.707107 -6.34931e-011 0.707107   
     length 0.857719   
     axis -90 -45 -2.85299e-015   XYZ
    dof rx rz
    limits (-45.0 45.0)
           (-45.0 45.0)
  end
:hierarchy
  begin
    root lhipjoint rhipjoint lowerback
    lhipjoint lfemur
    lfemur ltibia
    ltibia lfoot
    lfoot ltoes
    rhipjoint rfemur
    rfemur rtibia
    rtibia rfoot
    rfoot rtoes
    lowerback upperback
    upperback thorax
    thorax lowerneck lclavicle rclavicle
    lowerneck upperneck
    upperneck head
    lclavicle lhumerus
    lhumerus lradius
    lradius lwrist
    lwrist lhand lthumb
    lhand lfingers
    rclavicle rhumerus
    rhumerus rradius
    rradius rwrist
    rwrist rhand rthumb
    rhand rfingers
  end

#!OML:ASF I:\AllaLogoMonkeySwing\Project 1\Capture day 1\Session 1\Subject1.ASF
:FULLY-SPECIFIED
:DEGREES
208
root -4.18055 17.0643 -15.2912 25.542 -7.46751 -2.28517
lowerback 22.9377 1.30587 -1.93247
upperback 2.13345 1.53099 2.93366
thorax -10.6238 0.873383 3.89857
lowerneck -16.3647 4.37785 2.20549
upperneck -9.38376 5.2649 -7.17075
head 0.0191306 2.49975 -2.41737
rclavicle -3.33958e-014 -1.07344e-014
rhumerus -47.4819 7.18622 -88.0984
rradius 76.9712
rwrist -8.15928
rhand -11.531 -37.7614
rfingers 7.12502
rthumb 14.509 -67.2341
lclavicle -3.33958e-014 -1.07344e-014
lhumerus -65.4758 -1.65544 95.0419
lradius 80.0862
lwrist 14.1939
lhand -15.8629 -17.74
lfingers 7.12502
lthumb 10.3324 11.9862
rfemur -46.1417 -1.93962 20.479
rtibia 56.3838
rfoot -26.4107 4.46222
rtoes 5.83523
lfemur -41.7802 4.68064 -24.4193
ltibia 54.0458
lfoot -26.2039 -2.70294
ltoes -27.0391
209
root -4.18402 16.8879 -15.2622 26.8988 -7.08718 -2.68988
lowerback 23.146 1.33246 -1.75949
upperback 2.04804 1.62286 3.04652
thorax -10.8406 0.915702 3.89736
lowerneck -15.7995 4.50369 2.08291
upperneck -11.0319 5.37431 -7.28135
head -0.608749 2.60039 -2.46075
rclavicle -1.33186e-014 3.02153e-014
rhumerus -45.037 6.2589 -88.6238
rradius 75.4421
rwrist -7.41918
rhand -11.4924 -37.7082
rfingers 7.12502
rthumb 14.5461 -67.1782
lclavicle -1.33186e-014 3.02153e-014
lhumerus -63.2247 0.516134 94.5712
lradius 78.9852
lwrist 14.3107
lhand -17.4949 -19.0349
lfingers 7.12502
lthumb 8.75774 10.7634
rfemur -48.9242 -1.87287 21.1331
rtibia 59.2585
rfoot -27.3167 3.78345
rtoes 4.40204
lfemur -45.0515 4.65619 -23.5966
ltibia 57.6622
lfoot -26.9106 -4.91459
ltoes -26.8462
210
root -4.19895 16.7008 -15.2172 28.0499 -6.59759 -2.73546
lowerback 23.1036 1.27764 -1.87346
upperback 1.96055 1.52512 3.0405
thorax -10.9113 0.878563 3.98892
lowerneck -15.0446 4.75677 1.74918
upperneck -12.6095 5.71546 -6.96014
head -1.2539 2.83081 -2.32761
rclavicle 5.96354e-015 1.15295e-014
rhumerus -41.8375 5.75152 -89.5191
rradius 73.0834
rwrist -6.18225
rhand -11.7819 -39.0704
rfingers 7.12502
rthumb 14.2671 -68.5603
lclavicle 5.96354e-015 1.15295e-014
lhumerus -60.3528 2.58863 94.108
lradius 77.4477
lwrist 15.6361
lhand -19.9397 -19.6607
lfingers 7.12502
lthumb 6.398 10.2226
rfemur -51.0997 -1.86904 21.5298
rtibia 61.6353
rfoot -28.5563 2.43893
rtoes 3.89539
lfemur -47.9073 4.70076 -23.2142
ltibia 60.9282
lfoot -27.8582 -7.07815
ltoes -25.0369
211
root -4.21314 16.5157 -15.1371 28.7648 -6.39865 -2.81265
lowerback 23.0101 1.36076 -2.00507
upperback 1.90431 1.58907 2.92707
thorax -10.9295 0.912706 3.91712
lowerneck -14.745 4.98496 1.92144
upperneck -13.2535 5.96244 -7.23727
head -1.4894 2.96872 -2.46367
rclavicle 5.96354e-016 -2.50469e-014
rhumerus -38.069 5.72099 -90.4682
rradius 70.0758
rwrist -4.97992
rhand -13.2116 -38.3908
rfingers 7.12502
rthumb 12.8892 -67.9728
lclavicle 5.96354e-016 -2.50469e-014
lhumerus -56.7944 4.10029 93.6746
lradius 74.895
lwrist 18.3355
lhand -22.0662 -21.2893
lfingers 7.12502
lthumb 4.3448 8.64612
rfemur -52.3154 -1.48417 21.7493
rtibia 63.4767
rfoot -30.547 0.413132
rtoes 2.09486
lfemur -49.8751 5.10812 -23.2133
ltibia 63.7217
lfoot -28.773 -8.46852
ltoes -21.9862
212
root -4.23021 16.3372 -15.0273 28.8969 -5.44859 -2.57852
lowerback 23.2116 1.24141 -1.65888
upperback 1.75595 1.50654 2.76682
thorax -11.1865 0.859095 3.56476
lowerneck -14.6723 5.10632 2.75661
upperneck -13.2101 5.95795 -8.31679
head -1.42328 2.9387 -2.97791
rclavicle 9.93923e-016 -4.37326e-015
rhumerus -33.3257 6.25217 -91.451
rradius 65.8324
rwrist -4.7797
rhand -13.2596 -37.9718
rfingers 7.12502
rthumb 12.8429 -67.5567
lclavicle 9.93923e-016 -4.37326e-015
lhumerus -51.4933 4.4533 93.3297
lradius 70.5124
lwrist 22.0987
lhand -24.4769 -22.6385
lfingers 7.12502
lthumb 2.01674 7.33173
rfemur -52.4333 -1.50958 21.8937
rtibia 64.8195
rfoot -33.0714 -2.48408
rtoes -1.31476
lfemur -50.6899 4.88686 -23.3467
ltibia 65.8374
lfoot -29.6128 -8.39861
ltoes -23.0783
